M48
INCH,TZ
T1C0.020
T2C0.025
T3C0.032
T4C0.040
T5C0.045
T6C0.055
T7C0.086
%
G90
G05
T1
X054250Y-043000
T2
X021750Y-020500
X021750Y-021500
X021750Y-022500
X024678Y-027844
X025250Y-036250
X026000Y-026000
X026250Y-027000
X028000Y-026000
X031000Y-026000
X031250Y-051750
X031500Y-045750
X032250Y-047500
X033500Y-023250
X033500Y-031250
X033750Y-020500
X034750Y-026250
X034936Y-023505
X035000Y-020500
X035000Y-037250
X036750Y-017250
X038000Y-026000
X038000Y-027750
X038500Y-029250
X039000Y-026000
X042375Y-033875
X044000Y-035500
X044250Y-027750
X046250Y-032750
X046750Y-038250
X046782Y-024124
X047000Y-022750
X047250Y-032750
X048250Y-032750
X048750Y-040250
X049250Y-032750
X050250Y-019750
X050250Y-022750
X050870Y-032661
X053500Y-019750
X058378Y-031039
T3
X020375Y-025375
X020875Y-027875
X020875Y-030875
X021000Y-043250
X021000Y-048750
X021375Y-034625
X021375Y-035625
X021375Y-036875
X021375Y-037875
X021375Y-039125
X021375Y-040125
X022125Y-027875
X022125Y-030875
X023000Y-043250
X023000Y-048750
X023250Y-044500
X023250Y-047500
X023375Y-025375
X024375Y-034625
X024375Y-035625
X024375Y-036875
X024375Y-037875
X024375Y-039125
X024375Y-040125
X024500Y-045750
X024500Y-048750
X026000Y-019000
X026000Y-025000
X026250Y-045000
X026250Y-047000
X026250Y-050000
X027000Y-019000
X027000Y-025000
X028000Y-019000
X028000Y-025000
X028000Y-047000
X028000Y-050000
X029000Y-019000
X029000Y-025000
X029000Y-047000
X029000Y-050000
X029250Y-045000
X029500Y-043250
X029750Y-034000
X029750Y-035000
X029750Y-036250
X029750Y-037250
X029750Y-038500
X029750Y-039500
X029750Y-040750
X030000Y-019000
X030000Y-025000
X030500Y-043250
X030500Y-045000
X030500Y-046000
X030500Y-047000
X030500Y-048000
X030500Y-050000
X031000Y-019000
X031000Y-025000
X032000Y-019000
X032000Y-025000
X032750Y-034000
X032750Y-035000
X032750Y-036250
X032750Y-037250
X032750Y-038500
X032750Y-039500
X032750Y-040750
X033000Y-019000
X033000Y-025000
X033250Y-029750
X033500Y-045000
X033500Y-046000
X033500Y-047000
X033500Y-048000
X033500Y-050000
X034000Y-019000
X034000Y-025000
X034250Y-029750
X034300Y-027750
X035000Y-019000
X035000Y-025000
X035250Y-045000
X035250Y-048000
X036000Y-019000
X036000Y-025000
X036200Y-027750
X036250Y-029750
X036500Y-046000
X036500Y-049000
X037000Y-019000
X037000Y-025000
X037250Y-029750
X038000Y-019000
X038000Y-025000
X038750Y-052000
X038750Y-054000
X039000Y-019000
X039000Y-025000
X040000Y-019000
X040000Y-025000
X040250Y-028750
X040250Y-031750
X041000Y-019000
X041000Y-025000
X041250Y-028750
X041250Y-031750
X042000Y-019000
X042000Y-025000
X042250Y-028750
X042250Y-031750
X043000Y-019000
X043000Y-025000
X043250Y-028750
X043250Y-031750
X043750Y-052000
X043750Y-054000
X044000Y-019000
X044000Y-025000
X044250Y-028750
X044250Y-031750
X045000Y-019000
X045000Y-025000
X045250Y-028750
X045250Y-031750
X045750Y-052000
X045750Y-054000
X046250Y-028750
X046250Y-031750
X047250Y-028750
X047250Y-031750
X048250Y-028750
X048250Y-031750
X049250Y-028750
X049250Y-031750
X050750Y-052000
X050750Y-054000
X052125Y-018125
X052125Y-021125
X052125Y-023125
X052125Y-025125
X052125Y-027125
X052125Y-029125
X052125Y-031125
X052125Y-033125
X052125Y-035125
X052750Y-052000
X052750Y-054000
X055125Y-018125
X055125Y-021125
X055125Y-023125
X055125Y-025125
X055125Y-027125
X055125Y-029125
X055125Y-031125
X055125Y-033125
X055125Y-035125
X056625Y-018125
X056625Y-021125
X056625Y-023125
X056625Y-025125
X056625Y-027125
X056625Y-029125
X056625Y-031125
X056625Y-033125
X056625Y-035125
X057625Y-018125
X057625Y-021125
X057625Y-023125
X057625Y-025125
X057625Y-027125
X057625Y-029125
X057625Y-031125
X057625Y-033125
X057625Y-035125
X057750Y-052000
X057750Y-054000
T4
X020750Y-017500
X020750Y-018500
X020750Y-019500
X020750Y-020500
X020750Y-021500
X020750Y-022500
X024500Y-043250
X024500Y-044250
X026500Y-035500
X026500Y-036500
X026500Y-037500
X026500Y-038500
X026500Y-039500
X027500Y-035500
X027500Y-036500
X027500Y-037500
X027500Y-038500
X027500Y-039500
X034000Y-040750
X035000Y-040750
T5
X021000Y-045000
X021000Y-046000
X021000Y-047000
T6
X026500Y-054250
X028500Y-054250
X032500Y-054250
X034500Y-054250
T7
X020894Y-052446
X022122Y-054218
X023303Y-052446
T0
M30
